<svg width="20" height="20" viewBox="0 0 20 20" fill="none" xmlns="http://www.w3.org/2000/svg">
<path fill-rule="evenodd" clip-rule="evenodd" d="M0 0.87931C0 0.393681 0.372398 0 0.831774 0H2.65368C3.56719 0 4.35704 0.673449 4.55047 1.61726L4.63362 2.02293C4.69473 2.00794 4.75847 2 4.824 2H19.176C19.4628 2 19.729 2.15475 19.8788 2.40855C20.0285 2.66235 20.0403 2.97869 19.9099 3.24372L16.6277 9.91238C16.2992 10.5799 15.6378 11 14.9154 11H6.319C6.22538 11 6.1354 10.9838 6.05153 10.954C5.95766 11.1632 5.82969 11.3569 5.67035 11.5254L4.52044 12.741C4.34578 12.9257 4.46948 13.2414 4.71649 13.2414H15.1682C15.6276 13.2414 16 13.6351 16 14.1207C16 14.6063 15.6276 15 15.1682 15H14.5022C15.8819 15.0012 17 16.12 17 17.5C17 18.8807 15.8807 20 14.5 20C13.1193 20 12 18.8807 12 17.5C12 16.12 13.1181 15.0012 14.4978 15H6.50221C7.8819 15.0012 9 16.12 9 17.5C9 18.8807 7.88071 20 6.5 20C5.11929 20 4 18.8807 4 17.5C4 16.12 5.1181 15.0012 6.49779 15H4.71649C2.98742 15 2.1215 12.79 3.34414 11.4975L4.49405 10.2819C4.56071 10.2114 4.58893 10.1099 4.56897 10.0125L2.92465 1.98966C2.89702 1.85483 2.78418 1.75862 2.65368 1.75862H0.831774C0.372398 1.75862 0 1.36494 0 0.87931ZM6.1278 9.31329C6.18916 9.29816 6.25318 9.29016 6.319 9.29016H14.9154C15.0186 9.29016 15.1131 9.23014 15.16 9.13478L17.83 3.70984H4.97935L6.1278 9.31329ZM6.5 16.7347C6.07733 16.7347 5.73469 17.0773 5.73469 17.5C5.73469 17.9227 6.07733 18.2653 6.5 18.2653C6.92267 18.2653 7.26531 17.9227 7.26531 17.5C7.26531 17.0773 6.92267 16.7347 6.5 16.7347ZM14.5 16.7347C14.0773 16.7347 13.7347 17.0773 13.7347 17.5C13.7347 17.9227 14.0773 18.2653 14.5 18.2653C14.9227 18.2653 15.2653 17.9227 15.2653 17.5C15.2653 17.0773 14.9227 16.7347 14.5 16.7347Z" fill="#008B52"/>
</svg>
