<svg width="18" height="16" viewBox="0 0 18 16" fill="none" xmlns="http://www.w3.org/2000/svg">
<path fill-rule="evenodd" clip-rule="evenodd" d="M0 2.51429C0 1.12568 1.26639 0 2.82857 0H4.88571C6.44789 0 7.71429 1.12568 7.71429 2.51429V4.34286C7.71429 5.73146 6.44789 6.85714 4.88571 6.85714H2.82857C1.26639 6.85714 0 5.73146 0 4.34286V2.51429ZM2.82857 1.37143C2.11849 1.37143 1.54286 1.8831 1.54286 2.51429V4.34286C1.54286 4.97404 2.11849 5.48571 2.82857 5.48571H4.88571C5.59579 5.48571 6.17143 4.97404 6.17143 4.34286V2.51429C6.17143 1.8831 5.59579 1.37143 4.88571 1.37143H2.82857ZM10.2857 2.51429C10.2857 1.12568 11.5521 0 13.1143 0H15.1714C16.7336 0 18 1.12568 18 2.51429V4.34286C18 5.73146 16.7336 6.85714 15.1714 6.85714H13.1143C11.5521 6.85714 10.2857 5.73146 10.2857 4.34286V2.51429ZM13.1143 1.37143C12.4042 1.37143 11.8286 1.8831 11.8286 2.51429V4.34286C11.8286 4.97404 12.4042 5.48571 13.1143 5.48571H15.1714C15.8815 5.48571 16.4571 4.97404 16.4571 4.34286V2.51429C16.4571 1.8831 15.8815 1.37143 15.1714 1.37143H13.1143ZM0 11.6571C0 10.2685 1.26639 9.14286 2.82857 9.14286H4.88571C6.44789 9.14286 7.71429 10.2685 7.71429 11.6571V13.4857C7.71429 14.8743 6.44789 16 4.88571 16H2.82857C1.26639 16 0 14.8743 0 13.4857V11.6571ZM2.82857 10.5143C2.11849 10.5143 1.54286 11.026 1.54286 11.6571V13.4857C1.54286 14.1169 2.11849 14.6286 2.82857 14.6286H4.88571C5.59579 14.6286 6.17143 14.1169 6.17143 13.4857V11.6571C6.17143 11.026 5.59579 10.5143 4.88571 10.5143H2.82857ZM10.2857 11.6571C10.2857 10.2685 11.5521 9.14286 13.1143 9.14286H15.1714C16.7336 9.14286 18 10.2685 18 11.6571V13.4857C18 14.8743 16.7336 16 15.1714 16H13.1143C11.5521 16 10.2857 14.8743 10.2857 13.4857V11.6571ZM13.1143 10.5143C12.4042 10.5143 11.8286 11.026 11.8286 11.6571V13.4857C11.8286 14.1169 12.4042 14.6286 13.1143 14.6286H15.1714C15.8815 14.6286 16.4571 14.1169 16.4571 13.4857V11.6571C16.4571 11.026 15.8815 10.5143 15.1714 10.5143H13.1143Z" fill="#F5F5F5"/>
</svg>
