<svg width="40" height="40" viewBox="0 0 40 40" fill="none" xmlns="http://www.w3.org/2000/svg">
<path d="M29.4545 7H10.5455C8.59053 7 7 8.59053 7 10.5455V29.4545C7 31.4095 8.59053 33 10.5455 33H29.4545C31.4095 33 33 31.4095 33 29.4545V10.5455C33 8.59053 31.4095 7 29.4545 7ZM20 28.2727C15.4389 28.2727 11.7273 24.5611 11.7273 20C11.7273 15.4389 15.4389 11.7273 20 11.7273C24.5611 11.7273 28.2727 15.4389 28.2727 20C28.2727 24.5611 24.5611 28.2727 20 28.2727ZM28.2727 14.0909C26.9697 14.0909 25.9091 13.0304 25.9091 11.7273C25.9091 10.4242 26.9697 9.36364 28.2727 9.36364C29.5758 9.36364 30.6364 10.4242 30.6364 11.7273C30.6364 13.0304 29.5758 14.0909 28.2727 14.0909Z" fill="white" fill-opacity="0.9"/>
<path d="M19.5 14C16.4676 14 14 16.4676 14 19.5C14 22.5324 16.4676 25 19.5 25C22.5324 25 25 22.5324 25 19.5C25 16.4676 22.5324 14 19.5 14Z" fill="white" fill-opacity="0.9"/>
<path d="M34.0625 0H5.9375C2.70691 0 0 2.70691 0 5.9375V34.0625C0 37.2931 2.70691 40 5.9375 40H34.0625C37.2931 40 40 37.2931 40 34.0625V5.9375C40 2.70691 37.2931 0 34.0625 0ZM35.2344 29.375C35.2344 32.6056 32.6056 35.2344 29.375 35.2344H10.625C7.39441 35.2344 4.76562 32.6056 4.76562 29.375V10.625C4.76562 7.39441 7.39441 4.76562 10.625 4.76562H29.375C32.6056 4.76562 35.2344 7.39441 35.2344 10.625V29.375Z" fill="white" fill-opacity="0.9"/>
</svg>
