<svg width="20" height="20" viewBox="0 0 20 20" fill="none" xmlns="http://www.w3.org/2000/svg">
<path fill-rule="evenodd" clip-rule="evenodd" d="M0 2.82051C0 1.26279 1.26279 0 2.82051 0H6.18384C6.9564 0 7.64229 0.494361 7.8866 1.22728L9.42282 5.83594C9.70528 6.68332 9.32166 7.60945 8.52275 8.00891L6.89192 8.82432C7.86864 10.6374 9.36259 12.1314 11.1757 13.1081L11.9911 11.4773C12.3906 10.6783 13.3167 10.2947 14.1641 10.5772L18.7727 12.1134C19.5056 12.3577 20 13.0436 20 13.8162V17.1795C20 18.7372 18.7372 20 17.1795 20H16.1538C7.23232 20 0 12.7677 0 3.84615V2.82051ZM2.82051 1.53846C2.11246 1.53846 1.53846 2.11246 1.53846 2.82051V3.84615C1.53846 11.918 8.08199 18.4615 16.1538 18.4615H17.1795C17.8875 18.4615 18.4615 17.8875 18.4615 17.1795V13.8162C18.4615 13.7058 18.3909 13.6078 18.2862 13.5729L13.6776 12.0367C13.5565 11.9963 13.4242 12.0511 13.3671 12.1653L12.2096 14.4804C12.0249 14.8497 11.5817 15.0073 11.2054 14.8377C8.52694 13.63 6.36996 11.4731 5.16235 8.79463C4.99266 8.41827 5.15033 7.97507 5.51959 7.79044L7.83473 6.63287C7.94886 6.5758 8.00366 6.4435 7.96331 6.32244L6.42709 1.71379C6.39219 1.60909 6.2942 1.53846 6.18384 1.53846H2.82051Z" fill="#008B52"/>
</svg>
