<svg width="20" height="20" viewBox="0 0 20 20" fill="none" xmlns="http://www.w3.org/2000/svg">
<path fill-rule="evenodd" clip-rule="evenodd" d="M1.83871 9.5C1.83871 5.26879 5.26879 1.83871 9.5 1.83871C13.7312 1.83871 17.1613 5.26879 17.1613 9.5C17.1613 13.7312 13.7312 17.1613 9.5 17.1613C5.26879 17.1613 1.83871 13.7312 1.83871 9.5ZM9.5 0C4.25329 0 0 4.25329 0 9.5C0 14.7467 4.25329 19 9.5 19C11.8233 19 13.9518 18.166 15.6025 16.781L18.5774 19.7559C18.9028 20.0814 19.4305 20.0814 19.7559 19.7559C20.0814 19.4305 20.0814 18.9028 19.7559 18.5774L16.781 15.6025C18.166 13.9518 19 11.8233 19 9.5C19 4.25329 14.7467 0 9.5 0Z" fill="#363636"/>
</svg>
