<svg width="16" height="20" viewBox="0 0 16 20" fill="none" xmlns="http://www.w3.org/2000/svg">
<path fill-rule="evenodd" clip-rule="evenodd" d="M5.8 4.5C5.8 3.00883 7.00883 1.8 8.5 1.8C9.99117 1.8 11.2 3.00883 11.2 4.5C11.2 5.99117 9.99117 7.2 8.5 7.2C7.00883 7.2 5.8 5.99117 5.8 4.5ZM8.5 0C6.01472 0 4 2.01472 4 4.5C4 6.98528 6.01472 9 8.5 9C10.9853 9 13 6.98528 13 4.5C13 2.01472 10.9853 0 8.5 0ZM1.77778 15.6579C1.77778 14.4121 2.53126 13.1924 3.76537 12.2477C4.99608 11.3056 6.58463 10.7368 8 10.7368C9.41537 10.7368 11.0039 11.3056 12.2346 12.2477C13.4687 13.1924 14.2222 14.4121 14.2222 15.6579C14.2222 16.2732 14.0434 16.6858 13.7811 16.9893C13.5053 17.3084 13.08 17.5718 12.4888 17.7743C11.2804 18.1881 9.64479 18.2632 8 18.2632C6.35521 18.2632 4.71963 18.1881 3.5112 17.7743C2.91996 17.5718 2.49472 17.3084 2.21894 16.9893C1.95664 16.6858 1.77778 16.2732 1.77778 15.6579ZM8 9C6.14257 9 4.17556 9.72724 2.66892 10.8805C1.16567 12.0312 0 13.7062 0 15.6579C0 16.6413 0.300929 17.4622 0.86059 18.1098C1.40676 18.7418 2.14565 19.147 2.92309 19.4133C4.45202 19.9369 6.37199 20 8 20C9.62801 20 11.548 19.9369 13.0769 19.4133C13.8543 19.147 14.5932 18.7418 15.1394 18.1098C15.6991 17.4622 16 16.6413 16 15.6579C16 13.7062 14.8343 12.0312 13.3311 10.8805C11.8244 9.72724 9.85743 9 8 9Z" fill="#008B52"/>
</svg>
